<?xml version="1.0" standalone="no"?>
<!DOCTYPE svg PUBLIC "-//W3C//DTD SVG 20010904//EN"
 "http://www.w3.org/TR/2001/REC-SVG-20010904/DTD/svg10.dtd">
<svg version="1.0" xmlns="http://www.w3.org/2000/svg"
 width="1080.000000pt" height="1920.000000pt" viewBox="0 0 1080.000000 1920.000000"
 preserveAspectRatio="xMidYMid meet">

<g transform="translate(0.000000,1920.000000) scale(0.100000,-0.100000)"
fill="#000000" stroke="none">
<path d="M0 9600 l0 -9600 5400 0 5400 0 0 9600 0 9600 -1005 0 -1006 0 61
-56 c172 -161 283 -421 315 -734 7 -69 8 -377 1 -388 -2 -4 -7 -36 -10 -72
-18 -173 -57 -347 -127 -560 -83 -255 -278 -641 -412 -815 -4 -5 -30 -41 -59
-80 -28 -38 -53 -72 -55 -74 -1 -2 -5 -2 -8 1 -3 3 12 27 33 54 82 104 196
281 273 424 180 333 295 682 343 1040 19 142 15 473 -8 595 -51 278 -161 489
-325 628 -41 34 -50 37 -105 37 l-61 -1 30 -16 c195 -105 345 -352 402 -663
27 -149 24 -493 -6 -670 -40 -232 -116 -483 -210 -693 l-30 -67 -158 96 c-87
53 -160 98 -163 101 -2 2 4 25 13 51 155 407 166 774 31 1032 -62 120 -180
212 -303 239 -93 20 -254 -5 -355 -56 -162 -82 -347 -240 -464 -398 -28 -38
-55 -75 -60 -80 -4 -6 -33 -54 -63 -108 -63 -114 -46 -111 -219 -47 -63 24
-132 47 -152 53 -22 6 -38 17 -38 26 0 15 130 267 160 311 10 14 35 52 56 85
42 65 141 199 189 255 71 83 266 270 330 318 39 28 75 56 82 61 31 27 128 83
213 124 l95 47 -2510 0 -2510 0 80 -53 c223 -144 442 -354 617 -590 37 -51 71
-96 75 -102 7 -8 49 -72 83 -125 20 -32 110 -210 106 -210 -2 0 -30 46 -61
103 -137 245 -279 433 -469 622 -135 134 -233 212 -382 303 -84 50 -90 52
-158 52 l-71 -1 90 -43 c78 -37 262 -153 300 -189 7 -6 32 -28 55 -47 81 -65
250 -239 310 -318 14 -18 32 -41 40 -52 8 -10 22 -28 30 -40 8 -12 29 -41 45
-64 41 -56 73 -105 134 -208 50 -84 124 -238 118 -244 -7 -7 -332 -114 -346
-114 -9 0 -28 23 -44 54 -163 311 -493 614 -722 662 -5 1 -30 7 -54 12 -24 6
-73 9 -110 8 -224 -10 -380 -158 -447 -426 -15 -61 -19 -110 -18 -260 0 -171
3 -195 31 -316 17 -71 47 -172 67 -223 20 -51 36 -98 36 -105 0 -6 -46 -37
-102 -69 -57 -32 -129 -73 -161 -92 l-58 -35 -39 82 c-101 217 -193 546 -216
768 -3 36 -8 68 -10 72 -9 15 -4 358 6 438 23 182 87 373 166 497 49 76 177
204 234 231 l45 22 -64 0 c-47 0 -70 -5 -85 -17 -20 -17 -20 -17 -7 0 13 16
-37 17 -1018 17 l-1031 0 0 -9600z m7850 9586 c0 -5 -69 -46 -78 -46 -3 0 9
11 28 25 33 23 50 30 50 21z m-5840 -40 c0 -2 -8 -10 -17 -17 -16 -13 -17 -12
-4 4 13 16 21 21 21 13z m5610 -110 c0 -2 -8 -10 -17 -17 -16 -13 -17 -12 -4
4 13 16 21 21 21 13z m-120 -99 c0 -2 -10 -12 -22 -23 l-23 -19 19 23 c18 21
26 27 26 19z m-130 -130 c0 -2 -17 -19 -37 -38 l-38 -34 34 38 c33 34 41 42
41 34z m-100 -110 c0 -2 -10 -12 -22 -23 l-23 -19 19 23 c18 21 26 27 26 19z
m-5583 -384 c-3 -10 -5 -2 -5 17 0 19 2 27 5 18 2 -10 2 -26 0 -35z m0 -210
c-3 -10 -5 -2 -5 17 0 19 2 27 5 18 2 -10 2 -26 0 -35z m10 -125 c-3 -8 -6 -5
-6 6 -1 11 2 17 5 13 3 -3 4 -12 1 -19z m2345 -187 c119 -340 159 -520 177
-781 35 -539 -125 -958 -427 -1113 -114 -59 -186 -77 -308 -77 -353 1 -746
237 -1084 650 -52 63 -48 58 -104 135 -78 107 -230 366 -243 414 -3 13 20 32
104 80 59 35 130 76 156 92 27 16 52 27 57 24 4 -3 19 -26 33 -52 13 -27 34
-64 46 -83 11 -19 28 -48 37 -65 9 -16 44 -66 78 -110 176 -232 362 -381 561
-447 63 -20 99 -26 171 -26 195 0 324 85 414 273 58 122 75 211 75 400 -1 219
-35 388 -126 617 -17 42 -29 82 -27 88 2 7 80 38 173 70 l170 57 24 -45 c13
-25 32 -71 43 -101z m2980 88 c62 -22 129 -45 148 -51 49 -14 53 -21 36 -59
-94 -212 -147 -451 -146 -659 0 -141 4 -184 31 -288 49 -192 183 -342 338
-378 332 -79 733 200 1004 699 l48 87 47 -27 c26 -14 54 -32 62 -38 8 -6 59
-38 113 -70 53 -32 97 -60 97 -64 0 -10 -63 -131 -108 -208 -112 -192 -240
-360 -395 -517 -133 -134 -190 -184 -304 -263 -106 -74 -297 -169 -378 -188
-118 -28 -163 -35 -245 -35 -115 -1 -182 12 -278 56 -340 155 -513 599 -461
1187 21 240 114 604 208 812 28 60 32 65 50 55 12 -6 71 -29 133 -51z m-5315
9 c-3 -8 -6 -5 -6 6 -1 11 2 17 5 13 3 -3 4 -12 1 -19z m110 -470 c-3 -8 -6
-5 -6 6 -1 11 2 17 5 13 3 -3 4 -12 1 -19z m83 -213 c0 -5 -5 -3 -10 5 -5 8
-10 20 -10 25 0 6 5 3 10 -5 5 -8 10 -19 10 -25z m150 -315 c11 -22 18 -40 15
-40 -2 0 -14 18 -25 40 -11 22 -18 40 -15 40 2 0 14 -18 25 -40z m55 -100 c9
-16 13 -30 11 -30 -3 0 -12 14 -21 30 -9 17 -13 30 -11 30 3 0 12 -13 21 -30z
m40 -66 c9 -15 12 -23 6 -20 -11 7 -35 46 -28 46 3 0 12 -12 22 -26z m3512 -3
c306 -61 557 -177 828 -380 118 -89 225 -189 271 -254 149 -208 333 -313 569
-324 183 -9 394 48 573 154 41 24 77 43 82 43 5 0 10 3 12 8 2 4 35 30 73 57
101 71 186 146 298 263 l60 62 496 0 c414 0 507 -3 556 -15 179 -47 333 -201
380 -380 13 -53 15 -867 15 -7660 0 -6793 -2 -7607 -15 -7660 -47 -179 -201
-333 -380 -380 -53 -13 -501 -15 -4075 -15 -3574 0 -4022 2 -4075 15 -179 47
-333 201 -380 380 -13 53 -15 867 -15 7660 0 6793 2 7607 15 7660 47 179 201
333 380 380 50 12 144 15 578 15 l518 0 97 -98 c81 -82 150 -144 242 -215 40
-31 212 -136 264 -161 250 -119 496 -147 696 -80 51 17 160 76 199 108 65 52
153 155 200 234 54 92 93 130 254 246 244 174 482 279 767 337 191 39 321 39
517 0z m-3457 -82 c15 -28 5 -23 -15 7 -9 15 -12 23 -6 20 6 -4 16 -16 21 -27z
m31 -46 c13 -16 12 -17 -3 -4 -17 13 -22 21 -14 21 2 0 10 -8 17 -17z m30 -40
c13 -16 12 -17 -3 -4 -17 13 -22 21 -14 21 2 0 10 -8 17 -17z m30 -40 c13 -16
12 -17 -3 -4 -10 7 -18 15 -18 17 0 8 8 3 21 -13z m30 -40 c13 -16 12 -17 -3
-4 -17 13 -22 21 -14 21 2 0 10 -8 17 -17z m30 -40 c13 -16 12 -17 -3 -4 -17
13 -22 21 -14 21 2 0 10 -8 17 -17z"/>
</g>
</svg>
